<?xml version="1.0" encoding="utf-8"?>
<!-- Generator: Adobe Illustrator 23.0.1, SVG Export Plug-In . SVG Version: 6.00 Build 0)  -->
<svg version="1.1" id="Capa_1" xmlns="http://www.w3.org/2000/svg" xmlns:xlink="http://www.w3.org/1999/xlink" x="0px" y="0px"
	 viewBox="0 0 384 384" style="enable-background:new 0 0 384 384;" xml:space="preserve">
<style type="text/css">
	.st0{fill:#FFFFFF;}
</style>
<g>
	<g>
		<g>
			<path class="st0" d="M64,341.3c0,23.5,19.2,42.7,42.7,42.7h170.7c23.5,0,42.7-19.2,42.7-42.7v-256H64V341.3z M116.6,189.4
				l30.2-30.2l45.2,45.2l45.2-45.2l30.2,30.2l-45.2,45.2l45.2,45.2l-30.2,30.2L192,264.9l-45.2,45.2l-30.2-30.2l45.2-45.2
				L116.6,189.4z"/>
			<polygon class="st0" points="266.7,21.3 245.3,0 138.7,0 117.3,21.3 42.7,21.3 42.7,64 341.3,64 341.3,21.3 			"/>
		</g>
	</g>
</g>
</svg>
